<svg width="83" height="68" viewBox="0 0 83 68" fill="none" xmlns="http://www.w3.org/2000/svg">
<path opacity="0.05" d="M23.456 0.239994C31.008 0.239994 36.736 3.12 40.64 8.88C44.608 14.64 46.592 22.928 46.592 33.744C46.592 44.624 44.608 52.976 40.64 58.8C36.736 64.56 31.008 67.44 23.456 67.44C15.904 67.44 10.144 64.56 6.176 58.8C2.272 52.976 0.32 44.624 0.32 33.744C0.32 22.928 2.272 14.64 6.176 8.88C10.144 3.12 15.904 0.239994 23.456 0.239994ZM23.456 9.552C19.808 9.552 17.152 11.408 15.488 15.12C13.824 18.768 12.992 24.976 12.992 33.744C12.992 42.576 13.824 48.848 15.488 52.56C17.152 56.272 19.808 58.128 23.456 58.128C27.104 58.128 29.76 56.304 31.424 52.656C33.088 48.944 33.92 42.64 33.92 33.744C33.92 24.912 33.088 18.672 31.424 15.024C29.76 11.376 27.104 9.552 23.456 9.552ZM82.8613 1.392V66H70.7653V13.776L56.3653 22.512L50.9893 14.256L72.0133 1.392H82.8613Z" fill="#1B1818"/>
</svg>
